<mxfile host="Electron" agent="Mozilla/5.0 (Windows NT 10.0; Win64; x64) AppleWebKit/537.36 (KHTML, like Gecko) draw.io/24.7.17 Chrome/128.0.6613.36 Electron/32.0.1 Safari/537.36" version="24.7.17">
  <diagram id="C5RBs43oDa-KdzZeNtuy" name="Page-1">
    <mxGraphModel dx="1843" dy="887" grid="1" gridSize="10" guides="1" tooltips="1" connect="1" arrows="1" fold="1" page="1" pageScale="1" pageWidth="827" pageHeight="1169" math="0" shadow="0">
      <root>
        <mxCell id="WIyWlLk6GJQsqaUBKTNV-0" />
        <mxCell id="WIyWlLk6GJQsqaUBKTNV-1" parent="WIyWlLk6GJQsqaUBKTNV-0" />
        <mxCell id="mRxtp63wtM8b86C5hlCR-3" value="" style="edgeStyle=orthogonalEdgeStyle;rounded=0;orthogonalLoop=1;jettySize=auto;html=1;" parent="WIyWlLk6GJQsqaUBKTNV-1" source="mRxtp63wtM8b86C5hlCR-1" edge="1">
          <mxGeometry relative="1" as="geometry">
            <mxPoint x="400.0000000000002" y="170" as="targetPoint" />
          </mxGeometry>
        </mxCell>
        <mxCell id="mRxtp63wtM8b86C5hlCR-1" value="start" style="ellipse;whiteSpace=wrap;html=1;" parent="WIyWlLk6GJQsqaUBKTNV-1" vertex="1">
          <mxGeometry x="340" width="120" height="80" as="geometry" />
        </mxCell>
        <mxCell id="mRxtp63wtM8b86C5hlCR-5" value="" style="edgeStyle=orthogonalEdgeStyle;rounded=0;orthogonalLoop=1;jettySize=auto;html=1;" parent="WIyWlLk6GJQsqaUBKTNV-1" target="mRxtp63wtM8b86C5hlCR-4" edge="1">
          <mxGeometry relative="1" as="geometry">
            <mxPoint x="400.0000000000002" y="230" as="sourcePoint" />
          </mxGeometry>
        </mxCell>
        <mxCell id="mRxtp63wtM8b86C5hlCR-7" value="" style="edgeStyle=orthogonalEdgeStyle;rounded=0;orthogonalLoop=1;jettySize=auto;html=1;" parent="WIyWlLk6GJQsqaUBKTNV-1" source="mRxtp63wtM8b86C5hlCR-4" target="mRxtp63wtM8b86C5hlCR-6" edge="1">
          <mxGeometry relative="1" as="geometry" />
        </mxCell>
        <mxCell id="mRxtp63wtM8b86C5hlCR-15" value="" style="edgeStyle=orthogonalEdgeStyle;rounded=0;orthogonalLoop=1;jettySize=auto;html=1;" parent="WIyWlLk6GJQsqaUBKTNV-1" source="mRxtp63wtM8b86C5hlCR-4" target="mRxtp63wtM8b86C5hlCR-14" edge="1">
          <mxGeometry relative="1" as="geometry" />
        </mxCell>
        <mxCell id="mRxtp63wtM8b86C5hlCR-4" value="menu == 1" style="rhombus;whiteSpace=wrap;html=1;" parent="WIyWlLk6GJQsqaUBKTNV-1" vertex="1">
          <mxGeometry x="360" y="300" width="80" height="80" as="geometry" />
        </mxCell>
        <mxCell id="mRxtp63wtM8b86C5hlCR-41" value="" style="edgeStyle=orthogonalEdgeStyle;rounded=0;orthogonalLoop=1;jettySize=auto;html=1;" parent="WIyWlLk6GJQsqaUBKTNV-1" source="mRxtp63wtM8b86C5hlCR-6" target="mRxtp63wtM8b86C5hlCR-40" edge="1">
          <mxGeometry relative="1" as="geometry" />
        </mxCell>
        <mxCell id="mRxtp63wtM8b86C5hlCR-6" value="masukkan username :&lt;div&gt;masukkan password :&lt;/div&gt;&lt;div&gt;masukkan ulang password :&amp;nbsp;&lt;/div&gt;" style="shape=parallelogram;perimeter=parallelogramPerimeter;whiteSpace=wrap;html=1;fixedSize=1;" parent="WIyWlLk6GJQsqaUBKTNV-1" vertex="1">
          <mxGeometry x="500" y="310" width="180" height="60" as="geometry" />
        </mxCell>
        <mxCell id="mRxtp63wtM8b86C5hlCR-13" value="" style="edgeStyle=orthogonalEdgeStyle;rounded=0;orthogonalLoop=1;jettySize=auto;html=1;entryX=1;entryY=0.5;entryDx=0;entryDy=0;" parent="WIyWlLk6GJQsqaUBKTNV-1" edge="1">
          <mxGeometry relative="1" as="geometry">
            <mxPoint x="830" y="195" as="sourcePoint" />
            <mxPoint x="450.0000000000002" y="195" as="targetPoint" />
            <Array as="points">
              <mxPoint x="830" y="205" />
              <mxPoint x="450" y="205" />
            </Array>
          </mxGeometry>
        </mxCell>
        <mxCell id="mRxtp63wtM8b86C5hlCR-12" value="" style="shape=waypoint;sketch=0;size=6;pointerEvents=1;points=[];fillColor=default;resizable=0;rotatable=0;perimeter=centerPerimeter;snapToPoint=1;" parent="WIyWlLk6GJQsqaUBKTNV-1" vertex="1">
          <mxGeometry x="450" y="30" width="20" height="20" as="geometry" />
        </mxCell>
        <mxCell id="mRxtp63wtM8b86C5hlCR-23" value="" style="edgeStyle=orthogonalEdgeStyle;rounded=0;orthogonalLoop=1;jettySize=auto;html=1;" parent="WIyWlLk6GJQsqaUBKTNV-1" source="mRxtp63wtM8b86C5hlCR-14" target="mRxtp63wtM8b86C5hlCR-22" edge="1">
          <mxGeometry relative="1" as="geometry">
            <Array as="points">
              <mxPoint x="590" y="640" />
            </Array>
          </mxGeometry>
        </mxCell>
        <mxCell id="mRxtp63wtM8b86C5hlCR-168" value="" style="edgeStyle=orthogonalEdgeStyle;rounded=0;orthogonalLoop=1;jettySize=auto;html=1;entryX=0.5;entryY=0;entryDx=0;entryDy=0;" parent="WIyWlLk6GJQsqaUBKTNV-1" target="mRxtp63wtM8b86C5hlCR-167" edge="1">
          <mxGeometry relative="1" as="geometry">
            <mxPoint x="399.99999999999955" y="730.0000000000002" as="sourcePoint" />
            <mxPoint x="480" y="2795" as="targetPoint" />
            <Array as="points">
              <mxPoint x="70" y="731" />
              <mxPoint x="70" y="2795" />
              <mxPoint x="471" y="2795" />
            </Array>
          </mxGeometry>
        </mxCell>
        <mxCell id="mRxtp63wtM8b86C5hlCR-182" style="edgeStyle=orthogonalEdgeStyle;rounded=0;orthogonalLoop=1;jettySize=auto;html=1;exitX=0.5;exitY=1;exitDx=0;exitDy=0;" parent="WIyWlLk6GJQsqaUBKTNV-1" source="mRxtp63wtM8b86C5hlCR-14" edge="1">
          <mxGeometry relative="1" as="geometry">
            <mxPoint x="400.3333333333335" y="730.0000000000002" as="targetPoint" />
          </mxGeometry>
        </mxCell>
        <mxCell id="mRxtp63wtM8b86C5hlCR-14" value="menu ==2&amp;nbsp;" style="rhombus;whiteSpace=wrap;html=1;" parent="WIyWlLk6GJQsqaUBKTNV-1" vertex="1">
          <mxGeometry x="360" y="600" width="80" height="80" as="geometry" />
        </mxCell>
        <mxCell id="mRxtp63wtM8b86C5hlCR-19" value="true" style="text;html=1;align=center;verticalAlign=middle;resizable=0;points=[];autosize=1;strokeColor=none;fillColor=none;" parent="WIyWlLk6GJQsqaUBKTNV-1" vertex="1">
          <mxGeometry x="430" y="298" width="40" height="30" as="geometry" />
        </mxCell>
        <mxCell id="mRxtp63wtM8b86C5hlCR-20" value="false" style="text;html=1;align=center;verticalAlign=middle;resizable=0;points=[];autosize=1;strokeColor=none;fillColor=none;" parent="WIyWlLk6GJQsqaUBKTNV-1" vertex="1">
          <mxGeometry x="335" y="380" width="50" height="30" as="geometry" />
        </mxCell>
        <mxCell id="mRxtp63wtM8b86C5hlCR-29" value="" style="edgeStyle=orthogonalEdgeStyle;rounded=0;orthogonalLoop=1;jettySize=auto;html=1;" parent="WIyWlLk6GJQsqaUBKTNV-1" source="mRxtp63wtM8b86C5hlCR-22" target="mRxtp63wtM8b86C5hlCR-28" edge="1">
          <mxGeometry relative="1" as="geometry" />
        </mxCell>
        <mxCell id="mRxtp63wtM8b86C5hlCR-22" value="masukkan username :&lt;div&gt;masukkan password :&lt;/div&gt;" style="shape=parallelogram;perimeter=parallelogramPerimeter;whiteSpace=wrap;html=1;fixedSize=1;" parent="WIyWlLk6GJQsqaUBKTNV-1" vertex="1">
          <mxGeometry x="505" y="750" width="170" height="60" as="geometry" />
        </mxCell>
        <mxCell id="mRxtp63wtM8b86C5hlCR-55" style="edgeStyle=orthogonalEdgeStyle;rounded=0;orthogonalLoop=1;jettySize=auto;html=1;entryX=0.442;entryY=-0.003;entryDx=0;entryDy=0;entryPerimeter=0;" parent="WIyWlLk6GJQsqaUBKTNV-1" target="mRxtp63wtM8b86C5hlCR-145" edge="1">
          <mxGeometry relative="1" as="geometry">
            <mxPoint x="590" y="1340" as="targetPoint" />
            <mxPoint x="315" y="1160" as="sourcePoint" />
            <Array as="points">
              <mxPoint x="315" y="1370" />
            </Array>
          </mxGeometry>
        </mxCell>
        <mxCell id="mRxtp63wtM8b86C5hlCR-28" value="login sebagai&amp;nbsp; admin / user" style="rhombus;whiteSpace=wrap;html=1;" parent="WIyWlLk6GJQsqaUBKTNV-1" vertex="1">
          <mxGeometry x="210" y="840" width="210" height="170" as="geometry" />
        </mxCell>
        <mxCell id="mRxtp63wtM8b86C5hlCR-61" value="" style="edgeStyle=orthogonalEdgeStyle;rounded=0;orthogonalLoop=1;jettySize=auto;html=1;" parent="WIyWlLk6GJQsqaUBKTNV-1" edge="1">
          <mxGeometry relative="1" as="geometry">
            <mxPoint x="955" y="1100" as="sourcePoint" />
            <mxPoint x="955" y="1200" as="targetPoint" />
          </mxGeometry>
        </mxCell>
        <mxCell id="mRxtp63wtM8b86C5hlCR-222" style="edgeStyle=orthogonalEdgeStyle;rounded=0;orthogonalLoop=1;jettySize=auto;html=1;exitX=1;exitY=0.5;exitDx=0;exitDy=0;" parent="WIyWlLk6GJQsqaUBKTNV-1" source="mRxtp63wtM8b86C5hlCR-38" edge="1">
          <mxGeometry relative="1" as="geometry">
            <mxPoint x="450.14814814814804" y="200" as="targetPoint" />
          </mxGeometry>
        </mxCell>
        <mxCell id="mRxtp63wtM8b86C5hlCR-38" value="daftar menu&lt;div&gt;1. register&lt;/div&gt;&lt;div&gt;2. login&lt;/div&gt;&lt;div&gt;3. keluar&lt;/div&gt;" style="shape=parallelogram;perimeter=parallelogramPerimeter;whiteSpace=wrap;html=1;fixedSize=1;" parent="WIyWlLk6GJQsqaUBKTNV-1" vertex="1">
          <mxGeometry x="340" y="170" width="120" height="60" as="geometry" />
        </mxCell>
        <mxCell id="mRxtp63wtM8b86C5hlCR-43" value="" style="edgeStyle=orthogonalEdgeStyle;rounded=0;orthogonalLoop=1;jettySize=auto;html=1;" parent="WIyWlLk6GJQsqaUBKTNV-1" source="mRxtp63wtM8b86C5hlCR-40" target="mRxtp63wtM8b86C5hlCR-42" edge="1">
          <mxGeometry relative="1" as="geometry" />
        </mxCell>
        <mxCell id="mRxtp63wtM8b86C5hlCR-45" value="" style="edgeStyle=orthogonalEdgeStyle;rounded=0;orthogonalLoop=1;jettySize=auto;html=1;" parent="WIyWlLk6GJQsqaUBKTNV-1" source="mRxtp63wtM8b86C5hlCR-40" target="mRxtp63wtM8b86C5hlCR-44" edge="1">
          <mxGeometry relative="1" as="geometry" />
        </mxCell>
        <mxCell id="mRxtp63wtM8b86C5hlCR-40" value="password sama" style="rhombus;whiteSpace=wrap;html=1;" parent="WIyWlLk6GJQsqaUBKTNV-1" vertex="1">
          <mxGeometry x="550" y="410" width="80" height="80" as="geometry" />
        </mxCell>
        <mxCell id="mRxtp63wtM8b86C5hlCR-49" value="" style="edgeStyle=orthogonalEdgeStyle;rounded=0;orthogonalLoop=1;jettySize=auto;html=1;" parent="WIyWlLk6GJQsqaUBKTNV-1" edge="1">
          <mxGeometry relative="1" as="geometry">
            <mxPoint x="827.0009523809526" y="447.4566666666666" as="sourcePoint" />
            <mxPoint x="967" y="200" as="targetPoint" />
          </mxGeometry>
        </mxCell>
        <mxCell id="mRxtp63wtM8b86C5hlCR-42" value="&quot;pendataran berhasil&quot;&lt;div&gt;&lt;br&gt;&lt;/div&gt;" style="shape=parallelogram;perimeter=parallelogramPerimeter;whiteSpace=wrap;html=1;fixedSize=1;" parent="WIyWlLk6GJQsqaUBKTNV-1" vertex="1">
          <mxGeometry x="695" y="415" width="155" height="70" as="geometry" />
        </mxCell>
        <mxCell id="mRxtp63wtM8b86C5hlCR-47" value="" style="edgeStyle=orthogonalEdgeStyle;rounded=0;orthogonalLoop=1;jettySize=auto;html=1;" parent="WIyWlLk6GJQsqaUBKTNV-1" source="mRxtp63wtM8b86C5hlCR-44" target="mRxtp63wtM8b86C5hlCR-46" edge="1">
          <mxGeometry relative="1" as="geometry">
            <Array as="points">
              <mxPoint x="970" y="570" />
              <mxPoint x="970" y="450" />
            </Array>
          </mxGeometry>
        </mxCell>
        <mxCell id="mRxtp63wtM8b86C5hlCR-44" value="&quot;password salah&quot;" style="shape=parallelogram;perimeter=parallelogramPerimeter;whiteSpace=wrap;html=1;fixedSize=1;" parent="WIyWlLk6GJQsqaUBKTNV-1" vertex="1">
          <mxGeometry x="530" y="540" width="120" height="60" as="geometry" />
        </mxCell>
        <mxCell id="mRxtp63wtM8b86C5hlCR-46" value="" style="shape=waypoint;sketch=0;size=6;pointerEvents=1;points=[];fillColor=default;resizable=0;rotatable=0;perimeter=centerPerimeter;snapToPoint=1;" parent="WIyWlLk6GJQsqaUBKTNV-1" vertex="1">
          <mxGeometry x="955" y="440" width="20" height="20" as="geometry" />
        </mxCell>
        <mxCell id="mRxtp63wtM8b86C5hlCR-51" value="true" style="text;html=1;align=center;verticalAlign=middle;resizable=0;points=[];autosize=1;strokeColor=none;fillColor=none;" parent="WIyWlLk6GJQsqaUBKTNV-1" vertex="1">
          <mxGeometry x="620" y="418" width="40" height="30" as="geometry" />
        </mxCell>
        <mxCell id="mRxtp63wtM8b86C5hlCR-53" value="false" style="text;html=1;align=center;verticalAlign=middle;resizable=0;points=[];autosize=1;strokeColor=none;fillColor=none;" parent="WIyWlLk6GJQsqaUBKTNV-1" vertex="1">
          <mxGeometry x="545" y="498" width="50" height="30" as="geometry" />
        </mxCell>
        <mxCell id="mRxtp63wtM8b86C5hlCR-56" value="" style="edgeStyle=orthogonalEdgeStyle;rounded=0;orthogonalLoop=1;jettySize=auto;html=1;" parent="WIyWlLk6GJQsqaUBKTNV-1" source="mRxtp63wtM8b86C5hlCR-28" edge="1">
          <mxGeometry relative="1" as="geometry">
            <mxPoint x="315" y="1210" as="targetPoint" />
            <mxPoint x="485" y="925" as="sourcePoint" />
            <Array as="points">
              <mxPoint x="315" y="1070" />
              <mxPoint x="315" y="1070" />
            </Array>
          </mxGeometry>
        </mxCell>
        <mxCell id="mRxtp63wtM8b86C5hlCR-57" value="" style="edgeStyle=orthogonalEdgeStyle;rounded=0;orthogonalLoop=1;jettySize=auto;html=1;" parent="WIyWlLk6GJQsqaUBKTNV-1" source="mRxtp63wtM8b86C5hlCR-28" edge="1">
          <mxGeometry relative="1" as="geometry">
            <mxPoint x="880" y="925" as="targetPoint" />
            <mxPoint x="695" y="925" as="sourcePoint" />
            <Array as="points" />
          </mxGeometry>
        </mxCell>
        <mxCell id="mRxtp63wtM8b86C5hlCR-59" style="edgeStyle=orthogonalEdgeStyle;rounded=0;orthogonalLoop=1;jettySize=auto;html=1;entryX=0.5;entryY=0;entryDx=0;entryDy=0;" parent="WIyWlLk6GJQsqaUBKTNV-1" edge="1">
          <mxGeometry relative="1" as="geometry">
            <mxPoint x="955" y="980" as="targetPoint" />
            <mxPoint x="790" y="925" as="sourcePoint" />
          </mxGeometry>
        </mxCell>
        <mxCell id="mRxtp63wtM8b86C5hlCR-62" style="edgeStyle=orthogonalEdgeStyle;rounded=0;orthogonalLoop=1;jettySize=auto;html=1;" parent="WIyWlLk6GJQsqaUBKTNV-1" source="mRxtp63wtM8b86C5hlCR-60" edge="1">
          <mxGeometry relative="1" as="geometry">
            <mxPoint x="1080" y="1240" as="targetPoint" />
          </mxGeometry>
        </mxCell>
        <mxCell id="mRxtp63wtM8b86C5hlCR-85" value="" style="edgeStyle=orthogonalEdgeStyle;rounded=0;orthogonalLoop=1;jettySize=auto;html=1;" parent="WIyWlLk6GJQsqaUBKTNV-1" source="mRxtp63wtM8b86C5hlCR-60" target="mRxtp63wtM8b86C5hlCR-84" edge="1">
          <mxGeometry relative="1" as="geometry" />
        </mxCell>
        <mxCell id="mRxtp63wtM8b86C5hlCR-60" value="menu == 1" style="rhombus;whiteSpace=wrap;html=1;" parent="WIyWlLk6GJQsqaUBKTNV-1" vertex="1">
          <mxGeometry x="915" y="1200" width="80" height="80" as="geometry" />
        </mxCell>
        <mxCell id="mRxtp63wtM8b86C5hlCR-63" value="&quot;&lt;div&gt;daftar jadwal kegiatan&lt;/div&gt;&lt;div&gt;1. lihat jadwal kegiatan olahraga&lt;/div&gt;&lt;div&gt;2. tambah jadwal kegiatan olahraga&lt;/div&gt;&lt;div&gt;3. ubah jadwal kkegiatan olahraga&lt;/div&gt;&lt;div&gt;4. hapus jadwal kegiatan olahraga&lt;/div&gt;&lt;div&gt;5.kembali&lt;/div&gt;&lt;div&gt;&quot;&lt;/div&gt;" style="shape=parallelogram;perimeter=parallelogramPerimeter;whiteSpace=wrap;html=1;fixedSize=1;" parent="WIyWlLk6GJQsqaUBKTNV-1" vertex="1">
          <mxGeometry x="837.5" y="990" width="235" height="110" as="geometry" />
        </mxCell>
        <mxCell id="mRxtp63wtM8b86C5hlCR-68" value="" style="edgeStyle=orthogonalEdgeStyle;rounded=0;orthogonalLoop=1;jettySize=auto;html=1;" parent="WIyWlLk6GJQsqaUBKTNV-1" source="mRxtp63wtM8b86C5hlCR-66" target="mRxtp63wtM8b86C5hlCR-67" edge="1">
          <mxGeometry relative="1" as="geometry" />
        </mxCell>
        <mxCell id="mRxtp63wtM8b86C5hlCR-70" value="" style="edgeStyle=orthogonalEdgeStyle;rounded=0;orthogonalLoop=1;jettySize=auto;html=1;" parent="WIyWlLk6GJQsqaUBKTNV-1" source="mRxtp63wtM8b86C5hlCR-66" target="mRxtp63wtM8b86C5hlCR-69" edge="1">
          <mxGeometry relative="1" as="geometry" />
        </mxCell>
        <mxCell id="mRxtp63wtM8b86C5hlCR-66" value="jadwal olahraga" style="rhombus;whiteSpace=wrap;html=1;" parent="WIyWlLk6GJQsqaUBKTNV-1" vertex="1">
          <mxGeometry x="1080" y="1200" width="80" height="80" as="geometry" />
        </mxCell>
        <mxCell id="mRxtp63wtM8b86C5hlCR-72" style="edgeStyle=orthogonalEdgeStyle;rounded=0;orthogonalLoop=1;jettySize=auto;html=1;" parent="WIyWlLk6GJQsqaUBKTNV-1" source="mRxtp63wtM8b86C5hlCR-67" edge="1">
          <mxGeometry relative="1" as="geometry">
            <mxPoint x="2220" y="1240" as="targetPoint" />
          </mxGeometry>
        </mxCell>
        <mxCell id="mRxtp63wtM8b86C5hlCR-67" value="&quot;&lt;span style=&quot;background-color: initial;&quot;&gt;melihat jadwal kegiatan&quot;&lt;/span&gt;" style="shape=parallelogram;perimeter=parallelogramPerimeter;whiteSpace=wrap;html=1;fixedSize=1;" parent="WIyWlLk6GJQsqaUBKTNV-1" vertex="1">
          <mxGeometry x="1220" y="1210" width="170" height="60" as="geometry" />
        </mxCell>
        <mxCell id="mRxtp63wtM8b86C5hlCR-71" style="edgeStyle=orthogonalEdgeStyle;rounded=0;orthogonalLoop=1;jettySize=auto;html=1;" parent="WIyWlLk6GJQsqaUBKTNV-1" source="mRxtp63wtM8b86C5hlCR-69" edge="1">
          <mxGeometry relative="1" as="geometry">
            <mxPoint x="1440" y="1050" as="targetPoint" />
            <Array as="points">
              <mxPoint x="2220" y="1350" />
              <mxPoint x="2220" y="1050" />
            </Array>
          </mxGeometry>
        </mxCell>
        <mxCell id="mRxtp63wtM8b86C5hlCR-69" value="&quot;belum ada jadwal kegiatan&quot;" style="shape=parallelogram;perimeter=parallelogramPerimeter;whiteSpace=wrap;html=1;fixedSize=1;" parent="WIyWlLk6GJQsqaUBKTNV-1" vertex="1">
          <mxGeometry x="1060" y="1320" width="120" height="60" as="geometry" />
        </mxCell>
        <mxCell id="mRxtp63wtM8b86C5hlCR-79" style="edgeStyle=orthogonalEdgeStyle;rounded=0;orthogonalLoop=1;jettySize=auto;html=1;" parent="WIyWlLk6GJQsqaUBKTNV-1" source="mRxtp63wtM8b86C5hlCR-76" edge="1">
          <mxGeometry relative="1" as="geometry">
            <mxPoint x="1080" y="1049.9999999999998" as="targetPoint" />
          </mxGeometry>
        </mxCell>
        <mxCell id="mRxtp63wtM8b86C5hlCR-76" value="" style="shape=waypoint;sketch=0;size=6;pointerEvents=1;points=[];fillColor=none;resizable=0;rotatable=0;perimeter=centerPerimeter;snapToPoint=1;" parent="WIyWlLk6GJQsqaUBKTNV-1" vertex="1">
          <mxGeometry x="1430" y="1040" width="20" height="20" as="geometry" />
        </mxCell>
        <mxCell id="mRxtp63wtM8b86C5hlCR-80" value="true" style="text;html=1;align=center;verticalAlign=middle;resizable=0;points=[];autosize=1;strokeColor=none;fillColor=none;" parent="WIyWlLk6GJQsqaUBKTNV-1" vertex="1">
          <mxGeometry x="1150" y="1210" width="40" height="30" as="geometry" />
        </mxCell>
        <mxCell id="mRxtp63wtM8b86C5hlCR-82" value="false" style="text;html=1;align=center;verticalAlign=middle;resizable=0;points=[];autosize=1;strokeColor=none;fillColor=none;" parent="WIyWlLk6GJQsqaUBKTNV-1" vertex="1">
          <mxGeometry x="1075" y="1278" width="50" height="30" as="geometry" />
        </mxCell>
        <mxCell id="mRxtp63wtM8b86C5hlCR-83" value="true" style="text;html=1;align=center;verticalAlign=middle;resizable=0;points=[];autosize=1;strokeColor=none;fillColor=none;" parent="WIyWlLk6GJQsqaUBKTNV-1" vertex="1">
          <mxGeometry x="980" y="1208" width="40" height="30" as="geometry" />
        </mxCell>
        <mxCell id="mRxtp63wtM8b86C5hlCR-87" style="edgeStyle=orthogonalEdgeStyle;rounded=0;orthogonalLoop=1;jettySize=auto;html=1;" parent="WIyWlLk6GJQsqaUBKTNV-1" source="mRxtp63wtM8b86C5hlCR-84" target="mRxtp63wtM8b86C5hlCR-88" edge="1">
          <mxGeometry relative="1" as="geometry">
            <mxPoint x="1090" y="1470" as="targetPoint" />
          </mxGeometry>
        </mxCell>
        <mxCell id="mRxtp63wtM8b86C5hlCR-96" value="" style="edgeStyle=orthogonalEdgeStyle;rounded=0;orthogonalLoop=1;jettySize=auto;html=1;" parent="WIyWlLk6GJQsqaUBKTNV-1" source="mRxtp63wtM8b86C5hlCR-84" target="mRxtp63wtM8b86C5hlCR-95" edge="1">
          <mxGeometry relative="1" as="geometry" />
        </mxCell>
        <mxCell id="mRxtp63wtM8b86C5hlCR-84" value="menu == 2" style="rhombus;whiteSpace=wrap;html=1;" parent="WIyWlLk6GJQsqaUBKTNV-1" vertex="1">
          <mxGeometry x="915" y="1430" width="80" height="80" as="geometry" />
        </mxCell>
        <mxCell id="mRxtp63wtM8b86C5hlCR-86" value="false" style="text;html=1;align=center;verticalAlign=middle;resizable=0;points=[];autosize=1;strokeColor=none;fillColor=none;" parent="WIyWlLk6GJQsqaUBKTNV-1" vertex="1">
          <mxGeometry x="895" y="1298" width="50" height="30" as="geometry" />
        </mxCell>
        <mxCell id="mRxtp63wtM8b86C5hlCR-90" value="" style="edgeStyle=orthogonalEdgeStyle;rounded=0;orthogonalLoop=1;jettySize=auto;html=1;" parent="WIyWlLk6GJQsqaUBKTNV-1" source="GkW3iySBpwmUbkwAS0DR-1" target="mRxtp63wtM8b86C5hlCR-89" edge="1">
          <mxGeometry relative="1" as="geometry" />
        </mxCell>
        <mxCell id="mRxtp63wtM8b86C5hlCR-88" value="&lt;div&gt;&quot;&lt;/div&gt;&lt;div&gt;masukkan Id jadwal :&lt;/div&gt;masukkan jadwal kegiatan :&lt;div&gt;masukkan jadwal tanggal :&lt;/div&gt;&lt;div&gt;masukkan waktu :&lt;/div&gt;&lt;div&gt;masukkan lokasi tempat :&lt;/div&gt;" style="shape=parallelogram;perimeter=parallelogramPerimeter;whiteSpace=wrap;html=1;fixedSize=1;" parent="WIyWlLk6GJQsqaUBKTNV-1" vertex="1">
          <mxGeometry x="1140" y="1420" width="290" height="100" as="geometry" />
        </mxCell>
        <mxCell id="mRxtp63wtM8b86C5hlCR-93" style="edgeStyle=orthogonalEdgeStyle;rounded=0;orthogonalLoop=1;jettySize=auto;html=1;" parent="WIyWlLk6GJQsqaUBKTNV-1" source="mRxtp63wtM8b86C5hlCR-89" edge="1">
          <mxGeometry relative="1" as="geometry">
            <mxPoint x="2220" y="1350" as="targetPoint" />
            <Array as="points">
              <mxPoint x="2220" y="1470" />
            </Array>
          </mxGeometry>
        </mxCell>
        <mxCell id="mRxtp63wtM8b86C5hlCR-89" value="&quot;jadwal kegiatan berhasil dimasukkan" style="shape=parallelogram;perimeter=parallelogramPerimeter;whiteSpace=wrap;html=1;fixedSize=1;" parent="WIyWlLk6GJQsqaUBKTNV-1" vertex="1">
          <mxGeometry x="1680" y="1440" width="170" height="60" as="geometry" />
        </mxCell>
        <mxCell id="mRxtp63wtM8b86C5hlCR-94" value="true" style="text;html=1;align=center;verticalAlign=middle;resizable=0;points=[];autosize=1;strokeColor=none;fillColor=none;" parent="WIyWlLk6GJQsqaUBKTNV-1" vertex="1">
          <mxGeometry x="990" y="1438" width="40" height="30" as="geometry" />
        </mxCell>
        <mxCell id="mRxtp63wtM8b86C5hlCR-97" style="edgeStyle=orthogonalEdgeStyle;rounded=0;orthogonalLoop=1;jettySize=auto;html=1;" parent="WIyWlLk6GJQsqaUBKTNV-1" source="mRxtp63wtM8b86C5hlCR-95" edge="1">
          <mxGeometry relative="1" as="geometry">
            <mxPoint x="1080" y="1700" as="targetPoint" />
          </mxGeometry>
        </mxCell>
        <mxCell id="mRxtp63wtM8b86C5hlCR-109" value="" style="edgeStyle=orthogonalEdgeStyle;rounded=0;orthogonalLoop=1;jettySize=auto;html=1;" parent="WIyWlLk6GJQsqaUBKTNV-1" source="mRxtp63wtM8b86C5hlCR-95" target="mRxtp63wtM8b86C5hlCR-108" edge="1">
          <mxGeometry relative="1" as="geometry" />
        </mxCell>
        <mxCell id="mRxtp63wtM8b86C5hlCR-95" value="menu == 3" style="rhombus;whiteSpace=wrap;html=1;" parent="WIyWlLk6GJQsqaUBKTNV-1" vertex="1">
          <mxGeometry x="915" y="1660" width="80" height="80" as="geometry" />
        </mxCell>
        <mxCell id="mRxtp63wtM8b86C5hlCR-100" value="" style="edgeStyle=orthogonalEdgeStyle;rounded=0;orthogonalLoop=1;jettySize=auto;html=1;" parent="WIyWlLk6GJQsqaUBKTNV-1" source="mRxtp63wtM8b86C5hlCR-98" target="mRxtp63wtM8b86C5hlCR-99" edge="1">
          <mxGeometry relative="1" as="geometry" />
        </mxCell>
        <mxCell id="mRxtp63wtM8b86C5hlCR-106" value="" style="edgeStyle=orthogonalEdgeStyle;rounded=0;orthogonalLoop=1;jettySize=auto;html=1;" parent="WIyWlLk6GJQsqaUBKTNV-1" source="mRxtp63wtM8b86C5hlCR-98" target="mRxtp63wtM8b86C5hlCR-105" edge="1">
          <mxGeometry relative="1" as="geometry" />
        </mxCell>
        <mxCell id="mRxtp63wtM8b86C5hlCR-98" value="jadwal olahraga" style="rhombus;whiteSpace=wrap;html=1;" parent="WIyWlLk6GJQsqaUBKTNV-1" vertex="1">
          <mxGeometry x="1080" y="1660" width="80" height="80" as="geometry" />
        </mxCell>
        <mxCell id="mRxtp63wtM8b86C5hlCR-102" value="" style="edgeStyle=orthogonalEdgeStyle;rounded=0;orthogonalLoop=1;jettySize=auto;html=1;" parent="WIyWlLk6GJQsqaUBKTNV-1" source="mRxtp63wtM8b86C5hlCR-99" target="mRxtp63wtM8b86C5hlCR-113" edge="1">
          <mxGeometry relative="1" as="geometry">
            <mxPoint x="1620" y="1690" as="targetPoint" />
            <Array as="points" />
          </mxGeometry>
        </mxCell>
        <mxCell id="mRxtp63wtM8b86C5hlCR-99" value="&quot;masukkan id jadlwal yang ingin diubah :" style="shape=parallelogram;perimeter=parallelogramPerimeter;whiteSpace=wrap;html=1;fixedSize=1;" parent="WIyWlLk6GJQsqaUBKTNV-1" vertex="1">
          <mxGeometry x="1220" y="1670" width="320" height="60" as="geometry" />
        </mxCell>
        <mxCell id="mRxtp63wtM8b86C5hlCR-104" value="" style="edgeStyle=orthogonalEdgeStyle;rounded=0;orthogonalLoop=1;jettySize=auto;html=1;" parent="WIyWlLk6GJQsqaUBKTNV-1" source="mRxtp63wtM8b86C5hlCR-101" target="mRxtp63wtM8b86C5hlCR-103" edge="1">
          <mxGeometry relative="1" as="geometry" />
        </mxCell>
        <mxCell id="mRxtp63wtM8b86C5hlCR-101" value="&quot;&lt;div&gt;&lt;div&gt;masukkan kegiatan baru :&lt;/div&gt;&lt;div&gt;masukkan jtanggal baru :&lt;/div&gt;&lt;div&gt;masukkan waktu baru :&lt;/div&gt;&lt;div&gt;masukkan ltempat baru :&lt;/div&gt;&lt;div&gt;&quot;&lt;/div&gt;&lt;/div&gt;" style="shape=parallelogram;perimeter=parallelogramPerimeter;whiteSpace=wrap;html=1;fixedSize=1;" parent="WIyWlLk6GJQsqaUBKTNV-1" vertex="1">
          <mxGeometry x="1720" y="1650" width="240" height="100" as="geometry" />
        </mxCell>
        <mxCell id="mRxtp63wtM8b86C5hlCR-107" style="edgeStyle=orthogonalEdgeStyle;rounded=0;orthogonalLoop=1;jettySize=auto;html=1;" parent="WIyWlLk6GJQsqaUBKTNV-1" edge="1">
          <mxGeometry relative="1" as="geometry">
            <mxPoint x="2220" y="1470" as="targetPoint" />
            <mxPoint x="2220.076923076923" y="1687.03" as="sourcePoint" />
            <Array as="points">
              <mxPoint x="2220" y="1593.03" />
              <mxPoint x="2221" y="1497.03" />
            </Array>
          </mxGeometry>
        </mxCell>
        <mxCell id="mRxtp63wtM8b86C5hlCR-159" style="edgeStyle=orthogonalEdgeStyle;rounded=0;orthogonalLoop=1;jettySize=auto;html=1;" parent="WIyWlLk6GJQsqaUBKTNV-1" source="mRxtp63wtM8b86C5hlCR-103" edge="1">
          <mxGeometry relative="1" as="geometry">
            <mxPoint x="2220" y="1690" as="targetPoint" />
            <Array as="points">
              <mxPoint x="2220" y="1700" />
            </Array>
          </mxGeometry>
        </mxCell>
        <mxCell id="mRxtp63wtM8b86C5hlCR-103" value="&quot;jadwal berhasil diubah&quot;" style="shape=parallelogram;perimeter=parallelogramPerimeter;whiteSpace=wrap;html=1;fixedSize=1;" parent="WIyWlLk6GJQsqaUBKTNV-1" vertex="1">
          <mxGeometry x="1990" y="1670" width="180" height="60" as="geometry" />
        </mxCell>
        <mxCell id="mRxtp63wtM8b86C5hlCR-134" style="edgeStyle=orthogonalEdgeStyle;rounded=0;orthogonalLoop=1;jettySize=auto;html=1;" parent="WIyWlLk6GJQsqaUBKTNV-1" source="mRxtp63wtM8b86C5hlCR-105" edge="1">
          <mxGeometry relative="1" as="geometry">
            <mxPoint x="2220" y="1960" as="targetPoint" />
            <Array as="points">
              <mxPoint x="1120" y="1960" />
              <mxPoint x="1600" y="1960" />
            </Array>
          </mxGeometry>
        </mxCell>
        <mxCell id="mRxtp63wtM8b86C5hlCR-105" value="&quot;belum ada jadwal yang ingin diubah &quot;" style="shape=parallelogram;perimeter=parallelogramPerimeter;whiteSpace=wrap;html=1;fixedSize=1;" parent="WIyWlLk6GJQsqaUBKTNV-1" vertex="1">
          <mxGeometry x="1030" y="1830" width="180" height="60" as="geometry" />
        </mxCell>
        <mxCell id="mRxtp63wtM8b86C5hlCR-120" style="edgeStyle=orthogonalEdgeStyle;rounded=0;orthogonalLoop=1;jettySize=auto;html=1;" parent="WIyWlLk6GJQsqaUBKTNV-1" source="mRxtp63wtM8b86C5hlCR-108" edge="1">
          <mxGeometry relative="1" as="geometry">
            <mxPoint x="1080" y="2110" as="targetPoint" />
          </mxGeometry>
        </mxCell>
        <mxCell id="mRxtp63wtM8b86C5hlCR-138" value="" style="edgeStyle=orthogonalEdgeStyle;rounded=0;orthogonalLoop=1;jettySize=auto;html=1;" parent="WIyWlLk6GJQsqaUBKTNV-1" source="mRxtp63wtM8b86C5hlCR-108" target="mRxtp63wtM8b86C5hlCR-137" edge="1">
          <mxGeometry relative="1" as="geometry" />
        </mxCell>
        <mxCell id="mRxtp63wtM8b86C5hlCR-108" value="menu == 4" style="rhombus;whiteSpace=wrap;html=1;" parent="WIyWlLk6GJQsqaUBKTNV-1" vertex="1">
          <mxGeometry x="915" y="2070" width="80" height="80" as="geometry" />
        </mxCell>
        <mxCell id="mRxtp63wtM8b86C5hlCR-115" style="edgeStyle=orthogonalEdgeStyle;rounded=0;orthogonalLoop=1;jettySize=auto;html=1;" parent="WIyWlLk6GJQsqaUBKTNV-1" source="mRxtp63wtM8b86C5hlCR-113" target="mRxtp63wtM8b86C5hlCR-101" edge="1">
          <mxGeometry relative="1" as="geometry" />
        </mxCell>
        <mxCell id="mRxtp63wtM8b86C5hlCR-118" style="edgeStyle=orthogonalEdgeStyle;rounded=0;orthogonalLoop=1;jettySize=auto;html=1;" parent="WIyWlLk6GJQsqaUBKTNV-1" source="mRxtp63wtM8b86C5hlCR-113" edge="1">
          <mxGeometry relative="1" as="geometry">
            <mxPoint x="1640" y="1820" as="targetPoint" />
          </mxGeometry>
        </mxCell>
        <mxCell id="mRxtp63wtM8b86C5hlCR-113" value="valisidasi jadwal" style="rhombus;whiteSpace=wrap;html=1;" parent="WIyWlLk6GJQsqaUBKTNV-1" vertex="1">
          <mxGeometry x="1590" y="1655" width="100" height="90" as="geometry" />
        </mxCell>
        <mxCell id="mRxtp63wtM8b86C5hlCR-132" style="edgeStyle=orthogonalEdgeStyle;rounded=0;orthogonalLoop=1;jettySize=auto;html=1;" parent="WIyWlLk6GJQsqaUBKTNV-1" source="mRxtp63wtM8b86C5hlCR-119" edge="1">
          <mxGeometry relative="1" as="geometry">
            <mxPoint x="2220" y="1860" as="targetPoint" />
            <Array as="points">
              <mxPoint x="2080" y="1860" />
            </Array>
          </mxGeometry>
        </mxCell>
        <mxCell id="mRxtp63wtM8b86C5hlCR-119" value="&quot;nomor jadwal tidak valid&quot;" style="shape=parallelogram;perimeter=parallelogramPerimeter;whiteSpace=wrap;html=1;fixedSize=1;" parent="WIyWlLk6GJQsqaUBKTNV-1" vertex="1">
          <mxGeometry x="1550" y="1830" width="180" height="60" as="geometry" />
        </mxCell>
        <mxCell id="mRxtp63wtM8b86C5hlCR-122" style="edgeStyle=orthogonalEdgeStyle;rounded=0;orthogonalLoop=1;jettySize=auto;html=1;" parent="WIyWlLk6GJQsqaUBKTNV-1" source="mRxtp63wtM8b86C5hlCR-121" edge="1">
          <mxGeometry relative="1" as="geometry">
            <mxPoint x="1120" y="2220" as="targetPoint" />
          </mxGeometry>
        </mxCell>
        <mxCell id="mRxtp63wtM8b86C5hlCR-123" style="edgeStyle=orthogonalEdgeStyle;rounded=0;orthogonalLoop=1;jettySize=auto;html=1;" parent="WIyWlLk6GJQsqaUBKTNV-1" source="mRxtp63wtM8b86C5hlCR-121" edge="1">
          <mxGeometry relative="1" as="geometry">
            <mxPoint x="1270" y="2110" as="targetPoint" />
          </mxGeometry>
        </mxCell>
        <mxCell id="mRxtp63wtM8b86C5hlCR-121" value="jadwal olahraga" style="rhombus;whiteSpace=wrap;html=1;" parent="WIyWlLk6GJQsqaUBKTNV-1" vertex="1">
          <mxGeometry x="1080" y="2070" width="80" height="80" as="geometry" />
        </mxCell>
        <mxCell id="mRxtp63wtM8b86C5hlCR-126" style="edgeStyle=orthogonalEdgeStyle;rounded=0;orthogonalLoop=1;jettySize=auto;html=1;entryX=0;entryY=0.5;entryDx=0;entryDy=0;" parent="WIyWlLk6GJQsqaUBKTNV-1" source="mRxtp63wtM8b86C5hlCR-124" target="mRxtp63wtM8b86C5hlCR-127" edge="1">
          <mxGeometry relative="1" as="geometry">
            <mxPoint x="1620" y="2110" as="targetPoint" />
          </mxGeometry>
        </mxCell>
        <mxCell id="mRxtp63wtM8b86C5hlCR-124" value="&quot;masukkan nomor jadwal yang ingin dihapus: &quot;" style="shape=parallelogram;perimeter=parallelogramPerimeter;whiteSpace=wrap;html=1;fixedSize=1;" parent="WIyWlLk6GJQsqaUBKTNV-1" vertex="1">
          <mxGeometry x="1260" y="2080" width="270" height="60" as="geometry" />
        </mxCell>
        <mxCell id="mRxtp63wtM8b86C5hlCR-135" style="edgeStyle=orthogonalEdgeStyle;rounded=0;orthogonalLoop=1;jettySize=auto;html=1;" parent="WIyWlLk6GJQsqaUBKTNV-1" edge="1">
          <mxGeometry relative="1" as="geometry">
            <mxPoint x="1120.066666666667" y="2288" as="sourcePoint" />
            <mxPoint x="2220" y="2110" as="targetPoint" />
            <Array as="points">
              <mxPoint x="1120" y="2338" />
              <mxPoint x="2220" y="2338" />
              <mxPoint x="2220" y="2248" />
            </Array>
          </mxGeometry>
        </mxCell>
        <mxCell id="mRxtp63wtM8b86C5hlCR-125" value="&quot;belum ada jadwal yang ingin dihapus" style="shape=parallelogram;perimeter=parallelogramPerimeter;whiteSpace=wrap;html=1;fixedSize=1;" parent="WIyWlLk6GJQsqaUBKTNV-1" vertex="1">
          <mxGeometry x="1030" y="2220" width="180" height="60" as="geometry" />
        </mxCell>
        <mxCell id="mRxtp63wtM8b86C5hlCR-128" style="edgeStyle=orthogonalEdgeStyle;rounded=0;orthogonalLoop=1;jettySize=auto;html=1;" parent="WIyWlLk6GJQsqaUBKTNV-1" source="mRxtp63wtM8b86C5hlCR-127" target="mRxtp63wtM8b86C5hlCR-129" edge="1">
          <mxGeometry relative="1" as="geometry">
            <mxPoint x="1770" y="2110" as="targetPoint" />
          </mxGeometry>
        </mxCell>
        <mxCell id="mRxtp63wtM8b86C5hlCR-130" style="edgeStyle=orthogonalEdgeStyle;rounded=0;orthogonalLoop=1;jettySize=auto;html=1;" parent="WIyWlLk6GJQsqaUBKTNV-1" source="mRxtp63wtM8b86C5hlCR-127" edge="1">
          <mxGeometry relative="1" as="geometry">
            <mxPoint x="1670" y="2220" as="targetPoint" />
          </mxGeometry>
        </mxCell>
        <mxCell id="mRxtp63wtM8b86C5hlCR-127" value="valisidasi jadwal" style="rhombus;whiteSpace=wrap;html=1;" parent="WIyWlLk6GJQsqaUBKTNV-1" vertex="1">
          <mxGeometry x="1630" y="2070" width="80" height="80" as="geometry" />
        </mxCell>
        <mxCell id="mRxtp63wtM8b86C5hlCR-133" style="edgeStyle=orthogonalEdgeStyle;rounded=0;orthogonalLoop=1;jettySize=auto;html=1;" parent="WIyWlLk6GJQsqaUBKTNV-1" edge="1">
          <mxGeometry relative="1" as="geometry">
            <mxPoint x="2220" y="1690" as="targetPoint" />
            <mxPoint x="2020" y="2110" as="sourcePoint" />
            <Array as="points">
              <mxPoint x="2220" y="2110" />
              <mxPoint x="2220" y="1850" />
            </Array>
          </mxGeometry>
        </mxCell>
        <mxCell id="mRxtp63wtM8b86C5hlCR-129" value="&quot;jadwal berhasiil dihapus&quot;" style="shape=parallelogram;perimeter=parallelogramPerimeter;whiteSpace=wrap;html=1;fixedSize=1;" parent="WIyWlLk6GJQsqaUBKTNV-1" vertex="1">
          <mxGeometry x="1790" y="2080" width="230" height="60" as="geometry" />
        </mxCell>
        <mxCell id="mRxtp63wtM8b86C5hlCR-136" style="edgeStyle=orthogonalEdgeStyle;rounded=0;orthogonalLoop=1;jettySize=auto;html=1;" parent="WIyWlLk6GJQsqaUBKTNV-1" source="mRxtp63wtM8b86C5hlCR-131" edge="1">
          <mxGeometry relative="1" as="geometry">
            <mxPoint x="2220" y="2220" as="targetPoint" />
            <Array as="points">
              <mxPoint x="2220" y="2250" />
            </Array>
          </mxGeometry>
        </mxCell>
        <mxCell id="mRxtp63wtM8b86C5hlCR-131" value="&quot;nomor jadwal tidak vald" style="shape=parallelogram;perimeter=parallelogramPerimeter;whiteSpace=wrap;html=1;fixedSize=1;" parent="WIyWlLk6GJQsqaUBKTNV-1" vertex="1">
          <mxGeometry x="1580" y="2220" width="190" height="60" as="geometry" />
        </mxCell>
        <mxCell id="mRxtp63wtM8b86C5hlCR-139" style="edgeStyle=orthogonalEdgeStyle;rounded=0;orthogonalLoop=1;jettySize=auto;html=1;" parent="WIyWlLk6GJQsqaUBKTNV-1" edge="1">
          <mxGeometry relative="1" as="geometry">
            <mxPoint x="810" y="205" as="targetPoint" />
            <mxPoint x="1002.4999999999995" y="2494.9999999999995" as="sourcePoint" />
            <Array as="points">
              <mxPoint x="2277" y="2495" />
              <mxPoint x="2277" y="205" />
              <mxPoint x="837" y="205" />
            </Array>
          </mxGeometry>
        </mxCell>
        <mxCell id="mRxtp63wtM8b86C5hlCR-162" value="" style="edgeStyle=orthogonalEdgeStyle;rounded=0;orthogonalLoop=1;jettySize=auto;html=1;" parent="WIyWlLk6GJQsqaUBKTNV-1" source="mRxtp63wtM8b86C5hlCR-137" target="mRxtp63wtM8b86C5hlCR-161" edge="1">
          <mxGeometry relative="1" as="geometry" />
        </mxCell>
        <mxCell id="mRxtp63wtM8b86C5hlCR-137" value="menu == 5" style="rhombus;whiteSpace=wrap;html=1;" parent="WIyWlLk6GJQsqaUBKTNV-1" vertex="1">
          <mxGeometry x="915" y="2450" width="80" height="80" as="geometry" />
        </mxCell>
        <mxCell id="mRxtp63wtM8b86C5hlCR-140" value="keluar dari menu admin" style="text;html=1;align=center;verticalAlign=middle;resizable=0;points=[];autosize=1;strokeColor=none;fillColor=none;" parent="WIyWlLk6GJQsqaUBKTNV-1" vertex="1">
          <mxGeometry x="1010" y="2450" width="150" height="30" as="geometry" />
        </mxCell>
        <mxCell id="mRxtp63wtM8b86C5hlCR-157" style="edgeStyle=orthogonalEdgeStyle;rounded=0;orthogonalLoop=1;jettySize=auto;html=1;entryX=0.5;entryY=0;entryDx=0;entryDy=0;" parent="WIyWlLk6GJQsqaUBKTNV-1" source="mRxtp63wtM8b86C5hlCR-145" target="mRxtp63wtM8b86C5hlCR-147" edge="1">
          <mxGeometry relative="1" as="geometry" />
        </mxCell>
        <mxCell id="mRxtp63wtM8b86C5hlCR-145" value="&quot;&lt;div&gt;daftar jadwal kegiatan&lt;/div&gt;&lt;div&gt;1. lihat jadwal kegiatan olahraga&lt;/div&gt;&lt;div&gt;5.kembali&lt;/div&gt;&lt;div&gt;&quot;&lt;/div&gt;" style="shape=parallelogram;perimeter=parallelogramPerimeter;whiteSpace=wrap;html=1;fixedSize=1;" parent="WIyWlLk6GJQsqaUBKTNV-1" vertex="1">
          <mxGeometry x="205" y="1370" width="235" height="110" as="geometry" />
        </mxCell>
        <mxCell id="mRxtp63wtM8b86C5hlCR-146" style="edgeStyle=orthogonalEdgeStyle;rounded=0;orthogonalLoop=1;jettySize=auto;html=1;entryX=0;entryY=0.5;entryDx=0;entryDy=0;" parent="WIyWlLk6GJQsqaUBKTNV-1" source="mRxtp63wtM8b86C5hlCR-150" target="mRxtp63wtM8b86C5hlCR-151" edge="1">
          <mxGeometry relative="1" as="geometry">
            <mxPoint x="605" y="1590" as="targetPoint" />
          </mxGeometry>
        </mxCell>
        <mxCell id="mRxtp63wtM8b86C5hlCR-165" value="" style="edgeStyle=orthogonalEdgeStyle;rounded=0;orthogonalLoop=1;jettySize=auto;html=1;" parent="WIyWlLk6GJQsqaUBKTNV-1" source="mRxtp63wtM8b86C5hlCR-147" target="mRxtp63wtM8b86C5hlCR-164" edge="1">
          <mxGeometry relative="1" as="geometry" />
        </mxCell>
        <mxCell id="mRxtp63wtM8b86C5hlCR-147" value="menu == 1" style="rhombus;whiteSpace=wrap;html=1;" parent="WIyWlLk6GJQsqaUBKTNV-1" vertex="1">
          <mxGeometry x="282.5" y="1548" width="80" height="80" as="geometry" />
        </mxCell>
        <mxCell id="mRxtp63wtM8b86C5hlCR-149" value="" style="edgeStyle=orthogonalEdgeStyle;rounded=0;orthogonalLoop=1;jettySize=auto;html=1;" parent="WIyWlLk6GJQsqaUBKTNV-1" source="mRxtp63wtM8b86C5hlCR-150" target="mRxtp63wtM8b86C5hlCR-152" edge="1">
          <mxGeometry relative="1" as="geometry" />
        </mxCell>
        <mxCell id="mRxtp63wtM8b86C5hlCR-175" style="edgeStyle=orthogonalEdgeStyle;rounded=0;orthogonalLoop=1;jettySize=auto;html=1;" parent="WIyWlLk6GJQsqaUBKTNV-1" source="mRxtp63wtM8b86C5hlCR-151" edge="1">
          <mxGeometry relative="1" as="geometry">
            <mxPoint x="830" y="1588" as="targetPoint" />
          </mxGeometry>
        </mxCell>
        <mxCell id="mRxtp63wtM8b86C5hlCR-151" value="&quot;&lt;span style=&quot;background-color: initial;&quot;&gt;melihat jadwal kegiatan&quot;&lt;/span&gt;" style="shape=parallelogram;perimeter=parallelogramPerimeter;whiteSpace=wrap;html=1;fixedSize=1;" parent="WIyWlLk6GJQsqaUBKTNV-1" vertex="1">
          <mxGeometry x="610" y="1558" width="170" height="60" as="geometry" />
        </mxCell>
        <mxCell id="mRxtp63wtM8b86C5hlCR-152" value="&quot;belum ada jadwal kegiatan&quot;" style="shape=parallelogram;perimeter=parallelogramPerimeter;whiteSpace=wrap;html=1;fixedSize=1;" parent="WIyWlLk6GJQsqaUBKTNV-1" vertex="1">
          <mxGeometry x="450" y="1685" width="120" height="60" as="geometry" />
        </mxCell>
        <mxCell id="mRxtp63wtM8b86C5hlCR-153" value="true" style="text;html=1;align=center;verticalAlign=middle;resizable=0;points=[];autosize=1;strokeColor=none;fillColor=none;" parent="WIyWlLk6GJQsqaUBKTNV-1" vertex="1">
          <mxGeometry x="540" y="1550" width="40" height="30" as="geometry" />
        </mxCell>
        <mxCell id="mRxtp63wtM8b86C5hlCR-154" value="false" style="text;html=1;align=center;verticalAlign=middle;resizable=0;points=[];autosize=1;strokeColor=none;fillColor=none;" parent="WIyWlLk6GJQsqaUBKTNV-1" vertex="1">
          <mxGeometry x="470" y="1630" width="50" height="30" as="geometry" />
        </mxCell>
        <mxCell id="mRxtp63wtM8b86C5hlCR-155" value="true" style="text;html=1;align=center;verticalAlign=middle;resizable=0;points=[];autosize=1;strokeColor=none;fillColor=none;" parent="WIyWlLk6GJQsqaUBKTNV-1" vertex="1">
          <mxGeometry x="350" y="1550" width="40" height="30" as="geometry" />
        </mxCell>
        <mxCell id="mRxtp63wtM8b86C5hlCR-156" value="" style="edgeStyle=orthogonalEdgeStyle;rounded=0;orthogonalLoop=1;jettySize=auto;html=1;" parent="WIyWlLk6GJQsqaUBKTNV-1" source="mRxtp63wtM8b86C5hlCR-147" target="mRxtp63wtM8b86C5hlCR-150" edge="1">
          <mxGeometry relative="1" as="geometry">
            <mxPoint x="605" y="1590" as="targetPoint" />
            <mxPoint x="360" y="1590" as="sourcePoint" />
          </mxGeometry>
        </mxCell>
        <mxCell id="mRxtp63wtM8b86C5hlCR-150" value="jadwal olahraga" style="rhombus;whiteSpace=wrap;html=1;" parent="WIyWlLk6GJQsqaUBKTNV-1" vertex="1">
          <mxGeometry x="470" y="1548" width="80" height="80" as="geometry" />
        </mxCell>
        <mxCell id="mRxtp63wtM8b86C5hlCR-158" style="edgeStyle=orthogonalEdgeStyle;rounded=0;orthogonalLoop=1;jettySize=auto;html=1;exitX=0.5;exitY=1;exitDx=0;exitDy=0;" parent="WIyWlLk6GJQsqaUBKTNV-1" source="mRxtp63wtM8b86C5hlCR-103" target="mRxtp63wtM8b86C5hlCR-103" edge="1">
          <mxGeometry relative="1" as="geometry" />
        </mxCell>
        <mxCell id="mRxtp63wtM8b86C5hlCR-163" style="edgeStyle=orthogonalEdgeStyle;rounded=0;orthogonalLoop=1;jettySize=auto;html=1;" parent="WIyWlLk6GJQsqaUBKTNV-1" source="mRxtp63wtM8b86C5hlCR-161" edge="1">
          <mxGeometry relative="1" as="geometry">
            <mxPoint x="2220" y="2340" as="targetPoint" />
          </mxGeometry>
        </mxCell>
        <mxCell id="mRxtp63wtM8b86C5hlCR-161" value="&quot;menu tidak tersedia&quot;" style="shape=parallelogram;perimeter=parallelogramPerimeter;whiteSpace=wrap;html=1;fixedSize=1;" parent="WIyWlLk6GJQsqaUBKTNV-1" vertex="1">
          <mxGeometry x="895" y="2620" width="120" height="60" as="geometry" />
        </mxCell>
        <mxCell id="mRxtp63wtM8b86C5hlCR-172" value="" style="edgeStyle=orthogonalEdgeStyle;rounded=0;orthogonalLoop=1;jettySize=auto;html=1;" parent="WIyWlLk6GJQsqaUBKTNV-1" source="mRxtp63wtM8b86C5hlCR-164" target="mRxtp63wtM8b86C5hlCR-171" edge="1">
          <mxGeometry relative="1" as="geometry" />
        </mxCell>
        <mxCell id="mRxtp63wtM8b86C5hlCR-179" style="edgeStyle=orthogonalEdgeStyle;rounded=0;orthogonalLoop=1;jettySize=auto;html=1;" parent="WIyWlLk6GJQsqaUBKTNV-1" source="mRxtp63wtM8b86C5hlCR-164" edge="1">
          <mxGeometry relative="1" as="geometry">
            <mxPoint x="2270" y="2490" as="targetPoint" />
            <Array as="points">
              <mxPoint x="580" y="1920" />
              <mxPoint x="580" y="2570" />
              <mxPoint x="2270" y="2570" />
            </Array>
          </mxGeometry>
        </mxCell>
        <mxCell id="mRxtp63wtM8b86C5hlCR-164" value="menu == 5" style="rhombus;whiteSpace=wrap;html=1;" parent="WIyWlLk6GJQsqaUBKTNV-1" vertex="1">
          <mxGeometry x="282.5" y="1880" width="80" height="80" as="geometry" />
        </mxCell>
        <mxCell id="mRxtp63wtM8b86C5hlCR-186" value="" style="edgeStyle=orthogonalEdgeStyle;rounded=0;orthogonalLoop=1;jettySize=auto;html=1;" parent="WIyWlLk6GJQsqaUBKTNV-1" source="mRxtp63wtM8b86C5hlCR-167" target="mRxtp63wtM8b86C5hlCR-185" edge="1">
          <mxGeometry relative="1" as="geometry" />
        </mxCell>
        <mxCell id="mRxtp63wtM8b86C5hlCR-189" value="" style="edgeStyle=orthogonalEdgeStyle;rounded=0;orthogonalLoop=1;jettySize=auto;html=1;" parent="WIyWlLk6GJQsqaUBKTNV-1" source="mRxtp63wtM8b86C5hlCR-167" target="mRxtp63wtM8b86C5hlCR-188" edge="1">
          <mxGeometry relative="1" as="geometry" />
        </mxCell>
        <mxCell id="mRxtp63wtM8b86C5hlCR-167" value="menu == 3" style="rhombus;whiteSpace=wrap;html=1;" parent="WIyWlLk6GJQsqaUBKTNV-1" vertex="1">
          <mxGeometry x="431.25" y="2830" width="80" height="80" as="geometry" />
        </mxCell>
        <mxCell id="mRxtp63wtM8b86C5hlCR-173" style="edgeStyle=orthogonalEdgeStyle;rounded=0;orthogonalLoop=1;jettySize=auto;html=1;" parent="WIyWlLk6GJQsqaUBKTNV-1" target="mRxtp63wtM8b86C5hlCR-177" edge="1">
          <mxGeometry relative="1" as="geometry">
            <mxPoint x="830" y="1440" as="targetPoint" />
            <mxPoint x="421.22777777777765" y="2077.066666666667" as="sourcePoint" />
          </mxGeometry>
        </mxCell>
        <mxCell id="mRxtp63wtM8b86C5hlCR-171" value="&quot;menu tidak tersedia&quot;&amp;nbsp;" style="shape=parallelogram;perimeter=parallelogramPerimeter;whiteSpace=wrap;html=1;fixedSize=1;" parent="WIyWlLk6GJQsqaUBKTNV-1" vertex="1">
          <mxGeometry x="213.75" y="2050" width="217.5" height="60" as="geometry" />
        </mxCell>
        <mxCell id="mRxtp63wtM8b86C5hlCR-178" style="edgeStyle=orthogonalEdgeStyle;rounded=0;orthogonalLoop=1;jettySize=auto;html=1;" parent="WIyWlLk6GJQsqaUBKTNV-1" source="mRxtp63wtM8b86C5hlCR-177" target="mRxtp63wtM8b86C5hlCR-145" edge="1">
          <mxGeometry relative="1" as="geometry" />
        </mxCell>
        <mxCell id="mRxtp63wtM8b86C5hlCR-177" value="" style="shape=waypoint;sketch=0;size=6;pointerEvents=1;points=[];fillColor=none;resizable=0;rotatable=0;perimeter=centerPerimeter;snapToPoint=1;" parent="WIyWlLk6GJQsqaUBKTNV-1" vertex="1">
          <mxGeometry x="817.5" y="1415" width="20" height="20" as="geometry" />
        </mxCell>
        <mxCell id="mRxtp63wtM8b86C5hlCR-180" value="keluar dari menu user" style="text;html=1;align=center;verticalAlign=middle;resizable=0;points=[];autosize=1;strokeColor=none;fillColor=none;" parent="WIyWlLk6GJQsqaUBKTNV-1" vertex="1">
          <mxGeometry x="360" y="1880" width="140" height="30" as="geometry" />
        </mxCell>
        <mxCell id="mRxtp63wtM8b86C5hlCR-185" value="&quot;Terima kasih, sampai jumpa kembali" style="shape=parallelogram;perimeter=parallelogramPerimeter;whiteSpace=wrap;html=1;fixedSize=1;" parent="WIyWlLk6GJQsqaUBKTNV-1" vertex="1">
          <mxGeometry x="571.25" y="2840" width="258.75" height="60" as="geometry" />
        </mxCell>
        <mxCell id="mRxtp63wtM8b86C5hlCR-194" style="edgeStyle=orthogonalEdgeStyle;rounded=0;orthogonalLoop=1;jettySize=auto;html=1;" parent="WIyWlLk6GJQsqaUBKTNV-1" source="mRxtp63wtM8b86C5hlCR-188" edge="1">
          <mxGeometry relative="1" as="geometry">
            <mxPoint x="470" y="3180" as="targetPoint" />
          </mxGeometry>
        </mxCell>
        <mxCell id="mRxtp63wtM8b86C5hlCR-188" value="&quot;menu ttidak tersedia" style="shape=parallelogram;perimeter=parallelogramPerimeter;whiteSpace=wrap;html=1;fixedSize=1;" parent="WIyWlLk6GJQsqaUBKTNV-1" vertex="1">
          <mxGeometry x="381.88" y="3000" width="178.12" height="60" as="geometry" />
        </mxCell>
        <mxCell id="mRxtp63wtM8b86C5hlCR-191" value="end" style="ellipse;whiteSpace=wrap;html=1;" parent="WIyWlLk6GJQsqaUBKTNV-1" vertex="1">
          <mxGeometry x="660" y="2980" width="120" height="80" as="geometry" />
        </mxCell>
        <mxCell id="mRxtp63wtM8b86C5hlCR-193" style="edgeStyle=orthogonalEdgeStyle;rounded=0;orthogonalLoop=1;jettySize=auto;html=1;entryX=0.367;entryY=0.003;entryDx=0;entryDy=0;entryPerimeter=0;" parent="WIyWlLk6GJQsqaUBKTNV-1" source="mRxtp63wtM8b86C5hlCR-185" target="mRxtp63wtM8b86C5hlCR-191" edge="1">
          <mxGeometry relative="1" as="geometry">
            <Array as="points">
              <mxPoint x="714" y="2910" />
              <mxPoint x="714" y="2910" />
            </Array>
          </mxGeometry>
        </mxCell>
        <mxCell id="mRxtp63wtM8b86C5hlCR-197" style="edgeStyle=orthogonalEdgeStyle;rounded=0;orthogonalLoop=1;jettySize=auto;html=1;" parent="WIyWlLk6GJQsqaUBKTNV-1" edge="1">
          <mxGeometry relative="1" as="geometry">
            <mxPoint x="2270" y="2560" as="targetPoint" />
            <mxPoint x="470" y="3189" as="sourcePoint" />
          </mxGeometry>
        </mxCell>
        <mxCell id="mRxtp63wtM8b86C5hlCR-196" value="" style="shape=waypoint;sketch=0;size=6;pointerEvents=1;points=[];fillColor=none;resizable=0;rotatable=0;perimeter=centerPerimeter;snapToPoint=1;" parent="WIyWlLk6GJQsqaUBKTNV-1" vertex="1">
          <mxGeometry x="460" y="3180" width="20" height="20" as="geometry" />
        </mxCell>
        <mxCell id="mRxtp63wtM8b86C5hlCR-198" value="false" style="text;html=1;align=center;verticalAlign=middle;resizable=0;points=[];autosize=1;strokeColor=none;fillColor=none;" parent="WIyWlLk6GJQsqaUBKTNV-1" vertex="1">
          <mxGeometry x="915" y="1508" width="50" height="30" as="geometry" />
        </mxCell>
        <mxCell id="mRxtp63wtM8b86C5hlCR-199" value="true" style="text;html=1;align=center;verticalAlign=middle;resizable=0;points=[];autosize=1;strokeColor=none;fillColor=none;" parent="WIyWlLk6GJQsqaUBKTNV-1" vertex="1">
          <mxGeometry x="980" y="1660" width="40" height="30" as="geometry" />
        </mxCell>
        <mxCell id="mRxtp63wtM8b86C5hlCR-200" value="false" style="text;html=1;align=center;verticalAlign=middle;resizable=0;points=[];autosize=1;strokeColor=none;fillColor=none;" parent="WIyWlLk6GJQsqaUBKTNV-1" vertex="1">
          <mxGeometry x="895" y="1738" width="50" height="30" as="geometry" />
        </mxCell>
        <mxCell id="mRxtp63wtM8b86C5hlCR-201" value="true" style="text;html=1;align=center;verticalAlign=middle;resizable=0;points=[];autosize=1;strokeColor=none;fillColor=none;" parent="WIyWlLk6GJQsqaUBKTNV-1" vertex="1">
          <mxGeometry x="970" y="2058" width="40" height="30" as="geometry" />
        </mxCell>
        <mxCell id="mRxtp63wtM8b86C5hlCR-202" value="false" style="text;html=1;align=center;verticalAlign=middle;resizable=0;points=[];autosize=1;strokeColor=none;fillColor=none;" parent="WIyWlLk6GJQsqaUBKTNV-1" vertex="1">
          <mxGeometry x="895" y="2148" width="50" height="30" as="geometry" />
        </mxCell>
        <mxCell id="mRxtp63wtM8b86C5hlCR-204" value="kembali ke menu" style="text;html=1;align=center;verticalAlign=middle;resizable=0;points=[];autosize=1;strokeColor=none;fillColor=none;" parent="WIyWlLk6GJQsqaUBKTNV-1" vertex="1">
          <mxGeometry x="1020" y="2608" width="110" height="30" as="geometry" />
        </mxCell>
        <mxCell id="mRxtp63wtM8b86C5hlCR-205" value="false" style="text;html=1;align=center;verticalAlign=middle;resizable=0;points=[];autosize=1;strokeColor=none;fillColor=none;" parent="WIyWlLk6GJQsqaUBKTNV-1" vertex="1">
          <mxGeometry x="275" y="1638" width="50" height="30" as="geometry" />
        </mxCell>
        <mxCell id="mRxtp63wtM8b86C5hlCR-206" value="true" style="text;html=1;align=center;verticalAlign=middle;resizable=0;points=[];autosize=1;strokeColor=none;fillColor=none;" parent="WIyWlLk6GJQsqaUBKTNV-1" vertex="1">
          <mxGeometry x="1140" y="1658" width="40" height="30" as="geometry" />
        </mxCell>
        <mxCell id="mRxtp63wtM8b86C5hlCR-208" value="false" style="text;html=1;align=center;verticalAlign=middle;resizable=0;points=[];autosize=1;strokeColor=none;fillColor=none;" parent="WIyWlLk6GJQsqaUBKTNV-1" vertex="1">
          <mxGeometry x="1055" y="1738" width="50" height="30" as="geometry" />
        </mxCell>
        <mxCell id="mRxtp63wtM8b86C5hlCR-209" value="true" style="text;html=1;align=center;verticalAlign=middle;resizable=0;points=[];autosize=1;strokeColor=none;fillColor=none;" parent="WIyWlLk6GJQsqaUBKTNV-1" vertex="1">
          <mxGeometry x="1650" y="1648" width="40" height="30" as="geometry" />
        </mxCell>
        <mxCell id="mRxtp63wtM8b86C5hlCR-210" value="false" style="text;html=1;align=center;verticalAlign=middle;resizable=0;points=[];autosize=1;strokeColor=none;fillColor=none;" parent="WIyWlLk6GJQsqaUBKTNV-1" vertex="1">
          <mxGeometry x="1585" y="1738" width="50" height="30" as="geometry" />
        </mxCell>
        <mxCell id="mRxtp63wtM8b86C5hlCR-211" value="true" style="text;html=1;align=center;verticalAlign=middle;resizable=0;points=[];autosize=1;strokeColor=none;fillColor=none;" parent="WIyWlLk6GJQsqaUBKTNV-1" vertex="1">
          <mxGeometry x="1140" y="2068" width="40" height="30" as="geometry" />
        </mxCell>
        <mxCell id="mRxtp63wtM8b86C5hlCR-212" value="false" style="text;html=1;align=center;verticalAlign=middle;resizable=0;points=[];autosize=1;strokeColor=none;fillColor=none;" parent="WIyWlLk6GJQsqaUBKTNV-1" vertex="1">
          <mxGeometry x="1055" y="2148" width="50" height="30" as="geometry" />
        </mxCell>
        <mxCell id="mRxtp63wtM8b86C5hlCR-213" value="true" style="text;html=1;align=center;verticalAlign=middle;resizable=0;points=[];autosize=1;strokeColor=none;fillColor=none;" parent="WIyWlLk6GJQsqaUBKTNV-1" vertex="1">
          <mxGeometry x="1700" y="2058" width="40" height="30" as="geometry" />
        </mxCell>
        <mxCell id="mRxtp63wtM8b86C5hlCR-214" value="false" style="text;html=1;align=center;verticalAlign=middle;resizable=0;points=[];autosize=1;strokeColor=none;fillColor=none;" parent="WIyWlLk6GJQsqaUBKTNV-1" vertex="1">
          <mxGeometry x="1575" y="2148" width="50" height="30" as="geometry" />
        </mxCell>
        <mxCell id="mRxtp63wtM8b86C5hlCR-215" value="kembali ke menu" style="text;html=1;align=center;verticalAlign=middle;resizable=0;points=[];autosize=1;strokeColor=none;fillColor=none;" parent="WIyWlLk6GJQsqaUBKTNV-1" vertex="1">
          <mxGeometry x="415" y="2028" width="110" height="30" as="geometry" />
        </mxCell>
        <mxCell id="mRxtp63wtM8b86C5hlCR-216" value="admin" style="text;html=1;align=center;verticalAlign=middle;resizable=0;points=[];autosize=1;strokeColor=none;fillColor=none;" parent="WIyWlLk6GJQsqaUBKTNV-1" vertex="1">
          <mxGeometry x="420" y="888" width="60" height="30" as="geometry" />
        </mxCell>
        <mxCell id="mRxtp63wtM8b86C5hlCR-217" value="user" style="text;html=1;align=center;verticalAlign=middle;resizable=0;points=[];autosize=1;strokeColor=none;fillColor=none;" parent="WIyWlLk6GJQsqaUBKTNV-1" vertex="1">
          <mxGeometry x="255" y="1018" width="50" height="30" as="geometry" />
        </mxCell>
        <mxCell id="mRxtp63wtM8b86C5hlCR-218" value="true" style="text;html=1;align=center;verticalAlign=middle;resizable=0;points=[];autosize=1;strokeColor=none;fillColor=none;" parent="WIyWlLk6GJQsqaUBKTNV-1" vertex="1">
          <mxGeometry x="440" y="598" width="40" height="30" as="geometry" />
        </mxCell>
        <mxCell id="mRxtp63wtM8b86C5hlCR-219" value="false" style="text;html=1;align=center;verticalAlign=middle;resizable=0;points=[];autosize=1;strokeColor=none;fillColor=none;" parent="WIyWlLk6GJQsqaUBKTNV-1" vertex="1">
          <mxGeometry x="345" y="668" width="50" height="30" as="geometry" />
        </mxCell>
        <mxCell id="mRxtp63wtM8b86C5hlCR-220" value="true" style="text;html=1;align=center;verticalAlign=middle;resizable=0;points=[];autosize=1;strokeColor=none;fillColor=none;" parent="WIyWlLk6GJQsqaUBKTNV-1" vertex="1">
          <mxGeometry x="510" y="2828" width="40" height="30" as="geometry" />
        </mxCell>
        <mxCell id="mRxtp63wtM8b86C5hlCR-221" value="false" style="text;html=1;align=center;verticalAlign=middle;resizable=0;points=[];autosize=1;strokeColor=none;fillColor=none;" parent="WIyWlLk6GJQsqaUBKTNV-1" vertex="1">
          <mxGeometry x="405" y="2898" width="50" height="30" as="geometry" />
        </mxCell>
        <mxCell id="qglNY5jzoIq7m2TuOhMP-0" value="" style="endArrow=classic;html=1;rounded=0;" parent="WIyWlLk6GJQsqaUBKTNV-1" edge="1">
          <mxGeometry width="50" height="50" relative="1" as="geometry">
            <mxPoint x="430" y="220" as="sourcePoint" />
            <mxPoint x="480" y="220" as="targetPoint" />
            <Array as="points">
              <mxPoint x="430" y="220" />
              <mxPoint x="460" y="220" />
            </Array>
          </mxGeometry>
        </mxCell>
        <mxCell id="qglNY5jzoIq7m2TuOhMP-1" value="" style="endArrow=classic;html=1;rounded=0;entryX=0.167;entryY=0.167;entryDx=0;entryDy=0;entryPerimeter=0;" parent="WIyWlLk6GJQsqaUBKTNV-1" target="mRxtp63wtM8b86C5hlCR-6" edge="1">
          <mxGeometry width="50" height="50" relative="1" as="geometry">
            <mxPoint x="480" y="320" as="sourcePoint" />
            <mxPoint x="590" y="300" as="targetPoint" />
          </mxGeometry>
        </mxCell>
        <mxCell id="qglNY5jzoIq7m2TuOhMP-3" value="" style="endArrow=classic;html=1;rounded=0;entryX=0.147;entryY=0.167;entryDx=0;entryDy=0;entryPerimeter=0;" parent="WIyWlLk6GJQsqaUBKTNV-1" target="mRxtp63wtM8b86C5hlCR-22" edge="1">
          <mxGeometry width="50" height="50" relative="1" as="geometry">
            <mxPoint x="480" y="760" as="sourcePoint" />
            <mxPoint x="590" y="700" as="targetPoint" />
          </mxGeometry>
        </mxCell>
        <mxCell id="qglNY5jzoIq7m2TuOhMP-4" value="" style="endArrow=classic;html=1;rounded=0;exitX=0.819;exitY=0.818;exitDx=0;exitDy=0;exitPerimeter=0;" parent="WIyWlLk6GJQsqaUBKTNV-1" source="mRxtp63wtM8b86C5hlCR-63" edge="1">
          <mxGeometry width="50" height="50" relative="1" as="geometry">
            <mxPoint x="940" y="1090" as="sourcePoint" />
            <mxPoint x="1110" y="1080" as="targetPoint" />
          </mxGeometry>
        </mxCell>
        <mxCell id="qglNY5jzoIq7m2TuOhMP-5" value="" style="endArrow=classic;html=1;rounded=0;" parent="WIyWlLk6GJQsqaUBKTNV-1" edge="1">
          <mxGeometry width="50" height="50" relative="1" as="geometry">
            <mxPoint x="1120" y="1441" as="sourcePoint" />
            <mxPoint x="1179.9968421052629" y="1441.3157894736842" as="targetPoint" />
          </mxGeometry>
        </mxCell>
        <mxCell id="qglNY5jzoIq7m2TuOhMP-6" value="" style="endArrow=classic;html=1;rounded=0;" parent="WIyWlLk6GJQsqaUBKTNV-1" edge="1">
          <mxGeometry width="50" height="50" relative="1" as="geometry">
            <mxPoint x="1350" y="1260" as="sourcePoint" />
            <mxPoint x="1410" y="1260" as="targetPoint" />
          </mxGeometry>
        </mxCell>
        <mxCell id="qglNY5jzoIq7m2TuOhMP-7" value="" style="endArrow=classic;html=1;rounded=0;exitX=0.667;exitY=0.833;exitDx=0;exitDy=0;exitPerimeter=0;" parent="WIyWlLk6GJQsqaUBKTNV-1" source="mRxtp63wtM8b86C5hlCR-69" edge="1">
          <mxGeometry width="50" height="50" relative="1" as="geometry">
            <mxPoint x="1310" y="1370" as="sourcePoint" />
            <mxPoint x="1200" y="1370" as="targetPoint" />
          </mxGeometry>
        </mxCell>
        <mxCell id="qglNY5jzoIq7m2TuOhMP-8" value="" style="endArrow=classic;html=1;rounded=0;" parent="WIyWlLk6GJQsqaUBKTNV-1" edge="1">
          <mxGeometry width="50" height="50" relative="1" as="geometry">
            <mxPoint x="1840" y="1490" as="sourcePoint" />
            <mxPoint x="1890" y="1490" as="targetPoint" />
            <Array as="points">
              <mxPoint x="1820" y="1490" />
            </Array>
          </mxGeometry>
        </mxCell>
        <mxCell id="qglNY5jzoIq7m2TuOhMP-9" value="" style="endArrow=classic;html=1;rounded=0;" parent="WIyWlLk6GJQsqaUBKTNV-1" edge="1">
          <mxGeometry width="50" height="50" relative="1" as="geometry">
            <mxPoint x="810" y="460" as="sourcePoint" />
            <mxPoint x="870" y="460" as="targetPoint" />
          </mxGeometry>
        </mxCell>
        <mxCell id="qglNY5jzoIq7m2TuOhMP-10" value="" style="endArrow=classic;html=1;rounded=0;exitX=0.583;exitY=0.833;exitDx=0;exitDy=0;exitPerimeter=0;" parent="WIyWlLk6GJQsqaUBKTNV-1" source="mRxtp63wtM8b86C5hlCR-44" edge="1">
          <mxGeometry width="50" height="50" relative="1" as="geometry">
            <mxPoint x="780" y="550" as="sourcePoint" />
            <mxPoint x="670" y="590" as="targetPoint" />
          </mxGeometry>
        </mxCell>
        <mxCell id="qglNY5jzoIq7m2TuOhMP-11" value="" style="endArrow=classic;html=1;rounded=0;" parent="WIyWlLk6GJQsqaUBKTNV-1" edge="1">
          <mxGeometry width="50" height="50" relative="1" as="geometry">
            <mxPoint x="1200" y="1680" as="sourcePoint" />
            <mxPoint x="1260" y="1680" as="targetPoint" />
          </mxGeometry>
        </mxCell>
        <mxCell id="qglNY5jzoIq7m2TuOhMP-12" value="" style="endArrow=classic;html=1;rounded=0;exitX=0.722;exitY=0.833;exitDx=0;exitDy=0;exitPerimeter=0;" parent="WIyWlLk6GJQsqaUBKTNV-1" source="mRxtp63wtM8b86C5hlCR-105" edge="1">
          <mxGeometry width="50" height="50" relative="1" as="geometry">
            <mxPoint x="1400" y="1700" as="sourcePoint" />
            <mxPoint x="1240" y="1880" as="targetPoint" />
          </mxGeometry>
        </mxCell>
        <mxCell id="qglNY5jzoIq7m2TuOhMP-13" value="" style="endArrow=classic;html=1;rounded=0;exitX=0.778;exitY=0.667;exitDx=0;exitDy=0;exitPerimeter=0;" parent="WIyWlLk6GJQsqaUBKTNV-1" source="mRxtp63wtM8b86C5hlCR-119" edge="1">
          <mxGeometry width="50" height="50" relative="1" as="geometry">
            <mxPoint x="1400" y="1700" as="sourcePoint" />
            <mxPoint x="1750" y="1870" as="targetPoint" />
          </mxGeometry>
        </mxCell>
        <mxCell id="qglNY5jzoIq7m2TuOhMP-14" value="" style="endArrow=classic;html=1;rounded=0;entryX=0.208;entryY=0.3;entryDx=0;entryDy=0;entryPerimeter=0;" parent="WIyWlLk6GJQsqaUBKTNV-1" target="mRxtp63wtM8b86C5hlCR-101" edge="1">
          <mxGeometry width="50" height="50" relative="1" as="geometry">
            <mxPoint x="1700" y="1680" as="sourcePoint" />
            <mxPoint x="1450" y="1650" as="targetPoint" />
          </mxGeometry>
        </mxCell>
        <mxCell id="qglNY5jzoIq7m2TuOhMP-15" value="" style="endArrow=classic;html=1;rounded=0;" parent="WIyWlLk6GJQsqaUBKTNV-1" edge="1">
          <mxGeometry width="50" height="50" relative="1" as="geometry">
            <mxPoint x="2120" y="1720" as="sourcePoint" />
            <mxPoint x="2200" y="1720" as="targetPoint" />
          </mxGeometry>
        </mxCell>
        <mxCell id="qglNY5jzoIq7m2TuOhMP-16" value="" style="endArrow=classic;html=1;rounded=0;" parent="WIyWlLk6GJQsqaUBKTNV-1" edge="1">
          <mxGeometry width="50" height="50" relative="1" as="geometry">
            <mxPoint x="1230" y="2090" as="sourcePoint" />
            <mxPoint x="1310" y="2090" as="targetPoint" />
          </mxGeometry>
        </mxCell>
        <mxCell id="qglNY5jzoIq7m2TuOhMP-17" value="" style="endArrow=classic;html=1;rounded=0;exitX=0.778;exitY=0.833;exitDx=0;exitDy=0;exitPerimeter=0;" parent="WIyWlLk6GJQsqaUBKTNV-1" source="mRxtp63wtM8b86C5hlCR-125" edge="1">
          <mxGeometry width="50" height="50" relative="1" as="geometry">
            <mxPoint x="1260" y="2150" as="sourcePoint" />
            <mxPoint x="1250" y="2270" as="targetPoint" />
          </mxGeometry>
        </mxCell>
        <mxCell id="qglNY5jzoIq7m2TuOhMP-18" value="" style="endArrow=classic;html=1;rounded=0;" parent="WIyWlLk6GJQsqaUBKTNV-1" edge="1">
          <mxGeometry width="50" height="50" relative="1" as="geometry">
            <mxPoint x="1980" y="2130" as="sourcePoint" />
            <mxPoint x="2070.8888075086807" y="2130" as="targetPoint" />
            <Array as="points">
              <mxPoint x="1980" y="2130" />
            </Array>
          </mxGeometry>
        </mxCell>
        <mxCell id="qglNY5jzoIq7m2TuOhMP-19" value="" style="endArrow=classic;html=1;rounded=0;" parent="WIyWlLk6GJQsqaUBKTNV-1" edge="1">
          <mxGeometry width="50" height="50" relative="1" as="geometry">
            <mxPoint x="1710" y="2270" as="sourcePoint" />
            <mxPoint x="1820" y="2270" as="targetPoint" />
          </mxGeometry>
        </mxCell>
        <mxCell id="qglNY5jzoIq7m2TuOhMP-20" value="" style="endArrow=classic;html=1;rounded=0;exitX=0.625;exitY=0.833;exitDx=0;exitDy=0;exitPerimeter=0;" parent="WIyWlLk6GJQsqaUBKTNV-1" source="mRxtp63wtM8b86C5hlCR-161" edge="1">
          <mxGeometry width="50" height="50" relative="1" as="geometry">
            <mxPoint x="1070" y="2770" as="sourcePoint" />
            <mxPoint x="1050" y="2670" as="targetPoint" />
          </mxGeometry>
        </mxCell>
        <mxCell id="qglNY5jzoIq7m2TuOhMP-21" value="" style="endArrow=classic;html=1;rounded=0;" parent="WIyWlLk6GJQsqaUBKTNV-1" edge="1">
          <mxGeometry width="50" height="50" relative="1" as="geometry">
            <mxPoint x="780" y="2890" as="sourcePoint" />
            <mxPoint x="870" y="2890" as="targetPoint" />
            <Array as="points">
              <mxPoint x="780" y="2890" />
            </Array>
          </mxGeometry>
        </mxCell>
        <mxCell id="qglNY5jzoIq7m2TuOhMP-22" value="" style="endArrow=classic;html=1;rounded=0;exitX=0.663;exitY=0.833;exitDx=0;exitDy=0;exitPerimeter=0;" parent="WIyWlLk6GJQsqaUBKTNV-1" source="mRxtp63wtM8b86C5hlCR-188" edge="1">
          <mxGeometry width="50" height="50" relative="1" as="geometry">
            <mxPoint x="630" y="3040" as="sourcePoint" />
            <mxPoint x="580" y="3050" as="targetPoint" />
          </mxGeometry>
        </mxCell>
        <mxCell id="GkW3iySBpwmUbkwAS0DR-3" style="edgeStyle=orthogonalEdgeStyle;rounded=0;orthogonalLoop=1;jettySize=auto;html=1;" edge="1" parent="WIyWlLk6GJQsqaUBKTNV-1" source="GkW3iySBpwmUbkwAS0DR-1" target="GkW3iySBpwmUbkwAS0DR-2">
          <mxGeometry relative="1" as="geometry" />
        </mxCell>
        <mxCell id="GkW3iySBpwmUbkwAS0DR-4" style="edgeStyle=orthogonalEdgeStyle;rounded=0;orthogonalLoop=1;jettySize=auto;html=1;entryX=0.5;entryY=1;entryDx=0;entryDy=0;" edge="1" parent="WIyWlLk6GJQsqaUBKTNV-1" source="GkW3iySBpwmUbkwAS0DR-2" target="mRxtp63wtM8b86C5hlCR-88">
          <mxGeometry relative="1" as="geometry">
            <mxPoint x="1280" y="1580" as="targetPoint" />
          </mxGeometry>
        </mxCell>
        <mxCell id="GkW3iySBpwmUbkwAS0DR-2" value="&quot;Id sudah terdaftar&quot;" style="shape=parallelogram;perimeter=parallelogramPerimeter;whiteSpace=wrap;html=1;fixedSize=1;" vertex="1" parent="WIyWlLk6GJQsqaUBKTNV-1">
          <mxGeometry x="1500" y="1550" width="140" height="60" as="geometry" />
        </mxCell>
        <mxCell id="GkW3iySBpwmUbkwAS0DR-6" value="" style="endArrow=classic;html=1;rounded=0;" edge="1" parent="WIyWlLk6GJQsqaUBKTNV-1">
          <mxGeometry width="50" height="50" relative="1" as="geometry">
            <mxPoint x="1600" y="1600" as="sourcePoint" />
            <mxPoint x="1680" y="1600" as="targetPoint" />
            <Array as="points">
              <mxPoint x="1620" y="1600" />
            </Array>
          </mxGeometry>
        </mxCell>
        <mxCell id="GkW3iySBpwmUbkwAS0DR-7" value="" style="edgeStyle=orthogonalEdgeStyle;rounded=0;orthogonalLoop=1;jettySize=auto;html=1;" edge="1" parent="WIyWlLk6GJQsqaUBKTNV-1" source="mRxtp63wtM8b86C5hlCR-88" target="GkW3iySBpwmUbkwAS0DR-1">
          <mxGeometry relative="1" as="geometry">
            <mxPoint x="1420" y="1470" as="sourcePoint" />
            <mxPoint x="1690" y="1470" as="targetPoint" />
          </mxGeometry>
        </mxCell>
        <mxCell id="GkW3iySBpwmUbkwAS0DR-1" value="apakah id sudah ada?" style="rhombus;whiteSpace=wrap;html=1;" vertex="1" parent="WIyWlLk6GJQsqaUBKTNV-1">
          <mxGeometry x="1510" y="1422.5" width="130" height="95" as="geometry" />
        </mxCell>
        <mxCell id="GkW3iySBpwmUbkwAS0DR-8" value="true" style="text;html=1;align=center;verticalAlign=middle;resizable=0;points=[];autosize=1;strokeColor=none;fillColor=none;" vertex="1" parent="WIyWlLk6GJQsqaUBKTNV-1">
          <mxGeometry x="1620" y="1438" width="40" height="30" as="geometry" />
        </mxCell>
        <mxCell id="GkW3iySBpwmUbkwAS0DR-9" value="false" style="text;html=1;align=center;verticalAlign=middle;resizable=0;points=[];autosize=1;strokeColor=none;fillColor=none;" vertex="1" parent="WIyWlLk6GJQsqaUBKTNV-1">
          <mxGeometry x="1515" y="1508" width="50" height="30" as="geometry" />
        </mxCell>
      </root>
    </mxGraphModel>
  </diagram>
</mxfile>
